<svg width="300" height="300" viewBox="0 0 300 300" fill="none" xmlns="http://www.w3.org/2000/svg">
<path d="M63.291 204.787C63.366 202.078 63.4128 198.178 63.4222 196.012C63.4691 188.231 64.191 181.303 53.2972 176.972C49.6785 175.528 45.9378 173.4 44.2222 169.894C42.5066 166.406 43.8191 162.215 45.4878 158.7C48.6191 152.072 52.8847 146.025 55.9035 139.35C58.9222 132.665 63.9753 127.312 61.6785 120.356C57.441 107.512 36.3753 97.3873 31.8285 84.6467C30.8253 81.8342 30.2441 81.2061 31.9503 78.7404C32.9441 77.3154 36.4316 75.5436 37.9316 74.6529C59.5972 61.6873 81.2628 48.7404 102.938 35.7842C105.15 34.4623 110.025 31.8936 112.594 31.5279C118.828 30.6467 121.566 36.9186 125.813 41.5686C132.141 48.4967 138.469 55.4342 144.797 62.3529C146.663 64.3967 148.782 68.5779 151.5 68.0904C153.272 67.7904 154.866 64.4248 156.075 63.1029C164.166 54.2998 172.247 45.5061 180.328 36.7123C182.344 34.5092 184.725 32.1561 187.716 32.0904C189.835 32.0529 191.775 33.2154 193.575 34.3404C218.1 49.6217 242.644 64.9029 267.169 80.1842C268.069 80.7467 269.044 81.3936 269.382 82.4154C269.785 83.6061 269.157 84.8904 268.5 85.9686C260.25 99.5154 240.572 107.447 239.363 123.253C241.678 136.603 251.982 148.781 257.082 161.156C258.263 164.025 259.125 167.372 257.766 170.165C256.219 173.353 252.45 174.619 249.366 176.353C242.082 180.459 238.022 183.44 238.407 197.194C238.622 204.581 239.569 213.056 239.138 219.019C238.8 223.706 232.81 225.834 228.722 228.14C206.972 240.365 185.213 252.572 163.463 264.797C159.432 267.056 155.128 269.39 150.516 269.165C146.672 268.978 143.166 267.047 139.819 265.162C126.797 257.831 113.785 250.49 100.763 243.15C94.2566 239.484 87.741 235.819 81.2441 232.144C76.4066 229.415 68.2222 226.565 64.791 222.009C62.9628 219.572 62.7378 217.19 62.7003 214.172C62.6441 210.684 63.2253 208.265 63.3097 204.797L63.291 204.787ZM231.713 122.006C231.357 121.069 230.55 120.881 229.922 120.497C204.103 105.262 178.266 90.0654 152.485 74.7654C150.957 73.8654 149.991 74.0717 148.603 74.8592C122.503 89.7936 96.3753 104.672 70.266 119.578C69.741 119.887 68.916 119.99 68.8691 120.89C69.1035 121.04 69.3472 121.209 69.6097 121.35C95.7566 136.003 121.894 150.637 148.013 165.328C149.438 166.134 150.432 165.872 151.707 165.187C169.313 155.756 186.947 146.381 204.553 136.959C213.647 132.084 222.872 127.406 231.713 122.006ZM147.6 180.112C147.591 179.428 146.71 179.194 146.335 179.756C145.828 180.525 145.407 181.406 145.266 181.678C139.238 193.069 134.297 202.687 128.157 214.022C127.219 215.747 127.294 218.24 125.138 219.112C122.55 220.153 121.444 217.434 119.719 216.45C108.103 209.803 96.6097 202.94 85.0785 196.153C79.1816 192.684 73.2753 189.225 66.9285 185.512C66.9285 186.975 66.9378 187.912 66.9285 188.85C66.8066 198.094 66.7972 207.347 66.4972 216.572C66.4222 218.54 66.9003 219.487 68.5597 220.406C90.9285 232.837 113.269 245.344 135.61 257.822C140.222 260.4 144.872 262.94 149.691 265.622C148.988 236.906 148.294 208.603 147.591 180.094L147.6 180.112ZM153.103 180.225C152.363 180.422 151.697 179.84 151.716 180.609C152.56 200.531 153.085 236.709 153.778 265.031C154.697 264.59 155.288 264.328 155.869 264C170.41 255.844 184.941 247.65 199.5 239.522C210.928 233.147 221.944 226.022 234 220.828C235.528 220.172 235.303 219.178 235.285 218.062C235.228 208.134 235.06 198.215 235.135 188.287C235.163 185.456 234.432 185.765 232.5 186.937C219.225 194.981 205.885 202.922 192.572 210.89C187.66 213.834 182.775 216.806 177.844 219.712C175.21 221.259 174.938 219.169 173.972 217.444C173.457 216.506 170.897 211.875 170.447 211.059C167.232 205.303 166.407 203.653 163.163 197.915C159.825 192.019 156.46 186.112 153.103 180.225Z" fill="#1D2128"/>
<path d="M253.34 216.169C253.528 219.835 253.659 223.519 252.881 227.175C251.531 233.522 248.015 238.022 242.222 240.825C238.987 242.4 235.509 243.282 232.087 244.303C230.812 244.688 229.415 244.594 228.994 243.019C228.581 241.482 229.594 240.75 230.953 240.319C233.259 239.607 235.547 238.819 237.853 238.078C244.959 235.819 248.456 230.803 249.328 223.547C249.975 218.203 249.609 212.897 249.244 207.572C249.215 207.282 249.15 207 249.15 206.7C249.159 205.247 248.915 203.503 251.034 203.438C253.05 203.382 253.237 205.125 253.284 206.55C253.415 209.747 253.34 212.953 253.34 216.15V216.169Z" fill="#1D2128"/>
<path d="M60.5907 226.21C60.6001 227.194 60.0188 227.822 59.2782 228.338C54.2626 231.816 49.2563 235.313 44.2126 238.735C43.0501 239.522 41.5219 240.61 40.3782 238.95C39.2907 237.357 40.6688 236.222 41.8688 235.378C46.8563 231.863 51.8626 228.357 56.9251 224.963C58.7907 223.716 60.5907 224.428 60.5907 226.21Z" fill="#1D2128"/>
<path d="M44.0628 221.241C42.4409 221.185 41.4378 221.091 41.194 219.854C40.9878 218.775 41.3721 217.875 42.469 217.566C47.3909 216.169 52.3221 214.81 57.2721 213.507C58.3034 213.235 59.2034 213.666 59.5596 214.791C59.9346 216 59.4846 217.05 58.3409 217.379C53.4096 218.775 48.4503 220.05 44.0721 221.222L44.0628 221.241Z" fill="#1D2128"/>
<path d="M61.4531 244.697C62.5312 240.769 63.6188 236.653 64.8188 232.575C65.1188 231.544 66.075 231.066 67.1531 231.291C68.4 231.544 69.0188 232.5 68.7 233.682C67.6031 237.891 66.4313 242.082 65.175 246.244C64.875 247.275 64.0594 248.232 62.775 247.875C61.2281 247.453 61.7531 246 61.4625 244.697H61.4531Z" fill="#1D2128"/>
<path d="M151.79 125.315C161.896 125.456 167.137 131.494 170.325 139.181C170.793 140.334 170.887 141.806 169.265 142.369C167.671 142.931 166.893 141.778 166.406 140.578C160.471 126.14 148.715 127.79 139.378 134.315C137.306 135.769 135.45 137.484 134.025 139.622C133.218 140.84 132.065 141.834 130.65 140.784C129.281 139.762 129.759 138.347 130.65 137.175C136.143 129.975 143.409 125.99 151.79 125.315Z" fill="#1D2128"/>
<path d="M138.854 113.775C138.741 117.066 136.144 119.775 133.191 119.485C130.088 119.175 129.085 116.991 128.982 112.05C128.925 109.472 130.885 108.075 133.997 108.132C136.941 108.169 138.957 110.532 138.854 113.775Z" fill="#1D2128"/>
<path d="M168.459 118.378C165.741 118.34 164.137 116.681 164.212 113.981C164.306 110.887 166.425 108.328 168.928 108.318C171.225 108.309 173.906 111.365 173.831 113.925C173.747 116.615 171.562 118.425 168.459 118.378Z" fill="#1D2128"/>
</svg>
