<svg width="21" height="20" viewBox="0 0 21 20" fill="none" xmlns="http://www.w3.org/2000/svg">
<g clip-path="url(#clip0_181_56)">
<path fill-rule="evenodd" clip-rule="evenodd" d="M4.45358 7.50033C4.45358 5.95323 5.08268 4.4695 6.20249 3.37554C7.32229 2.28157 8.84107 1.66699 10.4247 1.66699C12.0083 1.66699 13.5271 2.28157 14.6469 3.37554C15.7667 4.4695 16.3958 5.95323 16.3958 7.50033V8.36283C17.8425 8.56533 18.9549 9.78116 18.9549 11.2503V11.4587C18.9548 11.82 18.8806 12.1777 18.7369 12.5106C18.5931 12.8435 18.3826 13.145 18.1177 13.3972C17.8528 13.6495 17.539 13.8474 17.1946 13.9793C16.8503 14.1112 16.4824 14.1744 16.1126 14.1653C15.4814 15.932 13.876 17.1228 12.1435 17.4245C11.7426 17.5678 11.2683 17.5003 10.8512 17.5003C10.5119 17.5003 10.1864 17.3686 9.94645 17.1342C9.7065 16.8998 9.57169 16.5818 9.57169 16.2503C9.57169 15.9188 9.7065 15.6009 9.94645 15.3664C10.1864 15.132 10.5119 15.0003 10.8512 15.0003H11.7042C11.9045 15.0003 12.102 15.0462 12.2809 15.1343C12.4597 15.2225 12.6148 15.3504 12.7338 15.5078C13.8393 14.9937 14.6898 13.9078 14.6898 12.5003V7.50033C14.6898 6.39526 14.2404 5.33545 13.4406 4.55405C12.6407 3.77265 11.5559 3.33366 10.4247 3.33366C9.29354 3.33366 8.20869 3.77265 7.40883 4.55405C6.60898 5.33545 6.15962 6.39526 6.15962 7.50033V12.7087C6.15962 13.0954 6.00234 13.4664 5.72239 13.7399C5.44244 14.0133 5.06275 14.167 4.66684 14.167C3.93158 14.167 3.22643 13.8817 2.70652 13.3737C2.18661 12.8658 1.89453 12.177 1.89453 11.4587V11.2503C1.89435 10.5488 2.15296 9.87079 2.62297 9.34045C3.09298 8.81012 3.74289 8.46304 4.45358 8.36283V7.50033ZM4.45358 10.0712C4.20401 10.1574 3.98795 10.3171 3.83517 10.5282C3.68239 10.7394 3.60043 10.9917 3.60057 11.2503V11.4587C3.60057 11.9628 3.96736 12.3837 4.45358 12.4795V10.0712ZM16.3958 10.0712V12.4795C16.8821 12.3828 17.2488 11.9628 17.2488 11.4587V11.2503C17.249 10.9917 17.167 10.7394 17.0142 10.5282C16.8615 10.3171 16.6454 10.1574 16.3958 10.0712Z" fill="white"/>
</g>
<defs>
<clipPath id="clip0_181_56">
<rect width="20.4724" height="20" fill="white" transform="translate(0.188477)"/>
</clipPath>
</defs>
</svg>
