<svg width="22" height="22" viewBox="0 0 22 22" fill="none" xmlns="http://www.w3.org/2000/svg">
<path d="M16.811 17.873L14.6795 15.74C13.6279 16.5586 12.3327 17.0021 11 17C9.6673 17.0021 8.37214 16.5586 7.3205 15.74L5.189 17.873C6.81212 19.2493 8.87193 20.0032 11 20C13.2155 20 15.245 19.199 16.811 17.873ZM17.873 16.811C19.2493 15.1879 20.0032 13.1281 20 11C20 8.7845 19.199 6.755 17.873 5.189L15.74 7.3205C16.529 8.3375 17 9.614 17 11C17 12.386 16.529 13.6625 15.74 14.6795L17.873 16.811ZM16.811 4.127C15.1879 2.75071 13.1281 1.99675 11 2C8.7845 2 6.755 2.801 5.189 4.127L7.3205 6.26C8.37214 5.44137 9.6673 4.99786 11 5C12.386 5 13.6625 5.471 14.6795 6.26L16.811 4.127ZM4.127 5.189C2.75071 6.81212 1.99675 8.87193 2 11C2 13.2155 2.801 15.245 4.127 16.811L6.26 14.6795C5.44137 13.6279 4.99786 12.3327 5 11C5 9.614 5.471 8.3375 6.26 7.3205L4.127 5.189ZM13.907 14.435C14.0971 14.2737 14.2737 14.0971 14.435 13.907C15.0995 13.1225 15.5 12.107 15.5 11C15.5012 10.3459 15.3592 9.69943 15.084 9.10602C14.8088 8.51261 14.4071 7.98663 13.907 7.565C13.0952 6.87609 12.0647 6.49857 11 6.5C10.3459 6.49878 9.69943 6.64076 9.10602 6.91595C8.51261 7.19115 7.98663 7.5929 7.565 8.093C6.9005 8.8775 6.5 9.893 6.5 11C6.49878 11.6541 6.64076 12.3006 6.91595 12.894C7.19115 13.4874 7.5929 14.0134 8.093 14.435C8.8775 15.0995 9.893 15.5 11 15.5C12.1085 15.5 13.1225 15.0995 13.907 14.435ZM11 21.5C8.21523 21.5 5.54451 20.3938 3.57538 18.4246C1.60625 16.4555 0.5 13.7848 0.5 11C0.5 8.21523 1.60625 5.54451 3.57538 3.57538C5.54451 1.60625 8.21523 0.5 11 0.5C13.7848 0.5 16.4555 1.60625 18.4246 3.57538C20.3938 5.54451 21.5 8.21523 21.5 11C21.5 13.7848 20.3938 16.4555 18.4246 18.4246C16.4555 20.3938 13.7848 21.5 11 21.5Z" fill="#1D2128"/>
</svg>
