<svg width="32" height="30" viewBox="0 0 32 30" fill="none" xmlns="http://www.w3.org/2000/svg">
<path d="M8.46442 8.48831V10.349H6.57156V8.48831H8.46442ZM9.41049 7.55762H5.62549V11.2783H9.41049V7.55762Z" fill="#1D2128"/>
<path d="M8.46442 14.0703V15.931H6.57156V14.0703H8.46442ZM9.41049 13.1396H5.62549V16.8603H9.41049V13.1396Z" fill="#1D2128"/>
<path d="M8.46442 19.6514V21.5121H6.57156V19.6514H8.46442ZM9.41049 18.7207H5.62549V22.4414H9.41049V18.7207Z" fill="#1D2128"/>
<path d="M14.1422 8.48831V10.349H12.2493V8.48831H14.1422ZM15.0882 7.55762H11.3032V11.2783H15.0882V7.55762Z" fill="#1D2128"/>
<path d="M14.1422 14.0703V15.931H12.2493V14.0703H14.1422ZM15.0882 13.1396H11.3032V16.8603H15.0882V13.1396Z" fill="#1D2128"/>
<path d="M14.1422 19.6514V21.5121H12.2493V19.6514H14.1422ZM15.0882 18.7207H11.3032V22.4414H15.0882V18.7207Z" fill="#1D2128"/>
<path d="M19.8199 8.48831V10.349H17.927V8.48831H19.8199ZM20.766 7.55762H16.981V11.2783H20.766V7.55762Z" fill="#1D2128"/>
<path d="M19.8199 14.0703V15.931H17.927V14.0703H19.8199ZM20.766 13.1396H16.981V16.8603H20.766V13.1396Z" fill="#1D2128"/>
<path d="M19.8199 19.6514V21.5121H17.927V19.6514H19.8199ZM20.766 18.7207H16.981V22.4414H20.766V18.7207Z" fill="#1D2128"/>
<path d="M25.4976 8.48831V10.349H23.6048V8.48831H25.4976ZM26.4437 7.55762H22.6587V11.2783H26.4437V7.55762Z" fill="#1D2128"/>
<path d="M25.4976 14.0703V15.931H23.6048V14.0703H25.4976ZM26.4437 13.1396H22.6587V16.8603H26.4437V13.1396Z" fill="#1D2128"/>
<path d="M25.4976 19.6514V21.5121H23.6048V19.6514H25.4976ZM26.4437 18.7207H22.6587V22.4414H26.4437V18.7207Z" fill="#1D2128"/>
</svg>
