<svg width="31" height="30" viewBox="0 0 31 30" fill="none" xmlns="http://www.w3.org/2000/svg">
<path d="M9.76944 8.48831V13.1397H5.03765V8.48831H9.76944ZM10.7162 7.55762H4.09229V14.069H10.7162V7.55762Z" fill="#1D2128"/>
<path d="M18.2865 8.48831V13.1397H13.5547V8.48831H18.2865ZM19.2333 7.55762H12.6094V14.069H19.2333V7.55762Z" fill="#1D2128"/>
<path d="M9.76944 16.8604V21.5118H5.03765V16.8604H9.76944ZM10.7162 15.9297H4.09229V22.4411H10.7162V15.9297Z" fill="#1D2128"/>
<path d="M18.2865 16.8604V21.5118H13.5547V16.8604H18.2865ZM19.2333 15.9297H12.6094V22.4411H19.2333V15.9297Z" fill="#1D2128"/>
<path d="M26.8031 8.48831V13.1397H22.0713V8.48831H26.8031ZM27.7499 7.55762H21.126V14.069H27.7499V7.55762Z" fill="#1D2128"/>
<path d="M26.8031 16.8604V21.5118H22.0713V16.8604H26.8031ZM27.7499 15.9297H21.126V22.4411H27.7499V15.9297Z" fill="#1D2128"/>
</svg>
