<svg width="31" height="30" viewBox="0 0 31 30" fill="none" xmlns="http://www.w3.org/2000/svg">
<path d="M8.05231 8.48831V10.349H6.15945V8.48831H8.05231ZM8.99838 7.55762H5.21338V11.2783H8.99838V7.55762Z" fill="#1D2128"/>
<path d="M8.05231 14.0703V15.931H6.15945V14.0703H8.05231ZM8.99838 13.1396H5.21338V16.8603H8.99838V13.1396Z" fill="#1D2128"/>
<path d="M8.05231 19.6514V21.5121H6.15945V19.6514H8.05231ZM8.99838 18.7207H5.21338V22.4414H8.99838V18.7207Z" fill="#1D2128"/>
<path d="M25.0858 8.48831V10.349H11.8372V8.48831H25.0858ZM26.0318 7.55762H10.8911V11.2783H26.0318V7.55762Z" fill="#1D2128"/>
<path d="M25.0858 14.0703V15.931H11.8372V14.0703H25.0858ZM26.0318 13.1396H10.8911V16.8603H26.0318V13.1396Z" fill="#1D2128"/>
<path d="M25.0858 19.6514V21.5121H11.8372V19.6514H25.0858ZM26.0318 18.7207H10.8911V22.4414H26.0318V18.7207Z" fill="#1D2128"/>
</svg>
