<svg width="32" height="29" viewBox="0 0 32 29" fill="none" xmlns="http://www.w3.org/2000/svg">
<path d="M29.2708 14.5002C29.2708 15.2143 28.8095 15.8583 28.1522 16.4456C27.7588 16.796 27.3002 17.1319 26.8962 17.4727C26.5735 17.7445 26.2828 18.0116 26.1468 18.3088C26.0042 18.6194 25.9948 19.0048 26.0068 19.4121C26.0215 19.9147 26.0815 20.4452 26.0855 20.9406C26.0935 21.7756 25.9215 22.5163 25.3842 23.0044C24.8455 23.4914 24.0282 23.6473 23.1068 23.64C22.5602 23.6352 21.9748 23.582 21.4215 23.5687C20.9722 23.5578 20.5455 23.5663 20.2028 23.6956C19.8748 23.8188 19.5802 24.0823 19.2802 24.3747C18.9042 24.7408 18.5335 25.1565 18.1468 25.5117C17.4988 26.1086 16.7882 26.5267 16.0002 26.5267C15.2122 26.5267 14.5015 26.1086 13.8535 25.5117C13.4668 25.1565 13.0962 24.7408 12.7202 24.3747C12.4202 24.0823 12.1242 23.8188 11.7975 23.6956C11.4548 23.5663 11.0282 23.5578 10.5802 23.5687C10.0255 23.582 9.44016 23.6352 8.89349 23.64C7.97216 23.6473 7.15349 23.4914 6.61616 23.0044C6.07749 22.5163 5.90683 21.7756 5.91483 20.9406C5.91883 20.4452 5.97883 19.9147 5.99349 19.4121C6.00549 19.0048 5.99616 18.6194 5.85349 18.3076C5.71749 18.0116 5.42683 17.7445 5.10416 17.4727C4.70149 17.1319 4.24283 16.796 3.84949 16.4456C3.19216 15.8583 2.72949 15.2143 2.72949 14.5002C2.72949 13.786 3.19216 13.142 3.84949 12.5548C4.24283 12.2043 4.70149 11.8684 5.10416 11.5277C5.42683 11.2558 5.71749 10.9888 5.85349 10.6927C5.99616 10.381 6.00549 9.99551 5.99349 9.5883C5.97883 9.08563 5.91883 8.55517 5.91483 8.05976C5.90683 7.2248 6.07749 6.48409 6.61616 5.99592C7.15349 5.50897 7.97216 5.35309 8.89349 5.36034C9.44016 5.36517 10.0255 5.41834 10.5802 5.43163C11.0282 5.44251 11.4548 5.43405 11.7975 5.30476C12.1242 5.18151 12.4202 4.91809 12.7202 4.62567C13.0962 4.25955 13.4668 3.84388 13.8535 3.48863C14.5015 2.89172 15.2122 2.47363 16.0002 2.47363C16.7882 2.47363 17.4988 2.89172 18.1468 3.48863C18.5335 3.84388 18.9042 4.25955 19.2802 4.62567C19.5802 4.91809 19.8748 5.18151 20.2028 5.30476C20.5455 5.43405 20.9722 5.44251 21.4215 5.43163C21.9748 5.41834 22.5602 5.36517 23.1068 5.36034C24.0282 5.35309 24.8455 5.50897 25.3842 5.99592C25.9215 6.48409 26.0935 7.2248 26.0855 8.05976C26.0815 8.55517 26.0215 9.08563 26.0068 9.5883C25.9948 9.99551 26.0042 10.381 26.1468 10.6915C26.2828 10.9888 26.5735 11.2558 26.8962 11.5277C27.3002 11.8684 27.7588 12.2043 28.1522 12.5548C28.8095 13.142 29.2708 13.786 29.2708 14.5002ZM27.9375 14.5002C27.9375 14.273 27.8202 14.0712 27.6628 13.8743C27.4442 13.6012 27.1455 13.3462 26.8335 13.0937C26.0562 12.4641 25.2268 11.837 24.9148 11.1555C24.5922 10.4486 24.6788 9.46505 24.7335 8.52376C24.7562 8.14313 24.7695 7.77217 24.7135 7.4423C24.6748 7.21151 24.6068 7.00126 24.4415 6.85142C24.2748 6.70038 24.0428 6.63876 23.7882 6.60372C23.4242 6.55297 23.0148 6.56505 22.5948 6.58559C21.5562 6.63513 20.4708 6.71368 19.6922 6.42126C18.9388 6.13851 18.2468 5.38813 17.5522 4.68247C17.2735 4.39972 16.9922 4.12905 16.6908 3.93088C16.4735 3.7883 16.2508 3.68197 16.0002 3.68197C15.7508 3.68197 15.5268 3.7883 15.3095 3.93088C15.0082 4.12905 14.7268 4.39972 14.4482 4.68247C13.7535 5.38813 13.0615 6.13851 12.3082 6.42126C11.5295 6.71368 10.4442 6.63513 9.40549 6.58559C8.98549 6.56505 8.57616 6.55297 8.21216 6.60372C7.95616 6.63876 7.72549 6.70038 7.55883 6.85142C7.39216 7.00126 7.32549 7.21151 7.28683 7.4423C7.23083 7.77217 7.24416 8.14313 7.26549 8.52376C7.32149 9.46505 7.40816 10.4486 7.08549 11.1543C6.77349 11.837 5.94549 12.4641 5.16683 13.0937C4.85483 13.3462 4.55616 13.6012 4.33749 13.8743C4.18016 14.0712 4.06283 14.273 4.06283 14.5002C4.06283 14.7273 4.18016 14.9291 4.33749 15.1261C4.55616 15.3992 4.85483 15.6541 5.16683 15.9067C5.94549 16.5362 6.77349 17.1633 7.08549 17.8461C7.40816 18.5517 7.32149 19.5353 7.26549 20.4766C7.24416 20.8572 7.23083 21.2282 7.28683 21.5581C7.32549 21.7888 7.39216 21.9991 7.55883 22.1489C7.72549 22.3 7.95616 22.3616 8.21216 22.3966C8.57616 22.4474 8.98549 22.4353 9.40549 22.4148C10.4442 22.3652 11.5295 22.2867 12.3082 22.5791C13.0615 22.8618 13.7535 23.6122 14.4482 24.3179C14.7268 24.6006 15.0082 24.8713 15.3095 25.0695C15.5268 25.2121 15.7508 25.3184 16.0002 25.3184C16.2508 25.3184 16.4735 25.2121 16.6908 25.0695C16.9922 24.8713 17.2735 24.6006 17.5522 24.3179C18.2468 23.6122 18.9388 22.8618 19.6922 22.5791C20.4708 22.2867 21.5562 22.3652 22.5948 22.4148C23.0148 22.4353 23.4242 22.4474 23.7882 22.3966C24.0428 22.3616 24.2748 22.3 24.4415 22.1489C24.6068 21.9991 24.6748 21.7888 24.7135 21.5581C24.7695 21.2282 24.7562 20.8572 24.7335 20.4766C24.6788 19.5353 24.5922 18.5517 24.9148 17.8448C25.2268 17.1633 26.0562 16.5362 26.8335 15.9067C27.1455 15.6541 27.4442 15.3992 27.6628 15.1261C27.8202 14.9291 27.9375 14.7273 27.9375 14.5002ZM13.8962 12.3711C13.7704 12.4849 13.6212 12.5752 13.457 12.6368C13.2928 12.6984 13.1168 12.7301 12.939 12.73C12.7613 12.73 12.5853 12.6982 12.4211 12.6365C12.257 12.5748 12.1078 12.4844 11.9822 12.3705C11.8565 12.2566 11.7569 12.1213 11.6889 11.9725C11.621 11.8237 11.586 11.6642 11.5861 11.5031C11.5862 11.342 11.6212 11.1825 11.6893 11.0337C11.7574 10.885 11.8571 10.7498 11.9828 10.6359C12.2367 10.406 12.581 10.2769 12.94 10.277C13.2989 10.2771 13.6431 10.4064 13.8968 10.6365C14.1505 10.8666 14.293 11.1786 14.2929 11.5039C14.2928 11.8292 14.1501 12.1412 13.8962 12.3711ZM19.8575 10.1502C19.9832 10.0401 20.1516 9.97922 20.3264 9.9806C20.5012 9.98198 20.6684 10.0455 20.792 10.1575C20.9156 10.2696 20.9858 10.4211 20.9873 10.5795C20.9888 10.7379 20.9216 10.8905 20.8002 11.0045L12.1428 18.8502C12.0171 18.9602 11.8487 19.0211 11.6739 19.0197C11.4991 19.0184 11.3319 18.9548 11.2083 18.8428C11.0847 18.7308 11.0146 18.5793 11.013 18.4209C11.0115 18.2624 11.0787 18.1098 11.2002 17.9959L19.8575 10.1502ZM18.1042 16.6305C18.2299 16.5166 18.3791 16.4263 18.5433 16.3647C18.7076 16.3031 18.8836 16.2715 19.0613 16.2715C19.239 16.2716 19.415 16.3034 19.5792 16.3651C19.7434 16.4267 19.8925 16.5171 20.0182 16.6311C20.1438 16.745 20.2434 16.8802 20.3114 17.0291C20.3793 17.1779 20.4143 17.3374 20.4142 17.4985C20.4142 17.6595 20.3791 17.819 20.311 17.9678C20.243 18.1166 20.1432 18.2518 20.0175 18.3656C19.7636 18.5956 19.4193 18.7247 19.0604 18.7246C18.7014 18.7245 18.3572 18.5951 18.1035 18.365C17.8498 18.1349 17.7073 17.8229 17.7074 17.4976C17.7075 17.1723 17.8503 16.8604 18.1042 16.6305Z" fill="#1D2128"/>
</svg>
