<svg width="24" height="24" viewBox="0 0 24 24" fill="none" xmlns="http://www.w3.org/2000/svg">
<path d="M14.719 1.5236C14.7438 1.4303 14.7868 1.34282 14.8456 1.26616C14.9043 1.1895 14.9775 1.12516 15.0611 1.07683C15.1447 1.02849 15.237 0.997111 15.3327 0.984473C15.4284 0.971834 15.5257 0.978189 15.619 1.00317C17.3936 1.46607 19.0127 2.39371 20.3095 3.69052C21.6063 4.98733 22.5339 6.60642 22.9968 8.38101C23.0218 8.47428 23.0282 8.57156 23.0155 8.66729C23.0029 8.76302 22.9715 8.85531 22.9232 8.9389C22.8748 9.02249 22.8105 9.09574 22.7338 9.15444C22.6572 9.21315 22.5697 9.25617 22.4764 9.28105C22.4145 9.29753 22.3507 9.30577 22.2866 9.30554C22.1247 9.30564 21.9673 9.25227 21.8389 9.15373C21.7105 9.0552 21.6182 8.917 21.5764 8.76062C21.179 7.2363 20.3822 5.84553 19.2684 4.73164C18.1545 3.61776 16.7637 2.82105 15.2394 2.42364C15.1461 2.39876 15.0586 2.35574 14.9819 2.29703C14.9053 2.23833 14.8409 2.16508 14.7926 2.08149C14.7443 1.9979 14.7129 1.90561 14.7003 1.80988C14.6876 1.71415 14.694 1.61687 14.719 1.5236ZM14.2598 6.34216C16.0415 6.81728 17.1827 7.95855 17.6578 9.74025C17.6997 9.89663 17.792 10.0348 17.9204 10.1334C18.0488 10.2319 18.2062 10.2853 18.3681 10.2852C18.4321 10.2854 18.496 10.2772 18.5579 10.2607C18.6512 10.2358 18.7387 10.1928 18.8153 10.1341C18.892 10.0754 18.9563 10.0021 19.0047 9.91853C19.053 9.83494 19.0844 9.74265 19.097 9.64692C19.1096 9.55119 19.1033 9.45391 19.0783 9.36064C18.466 7.06953 16.9305 5.53396 14.6394 4.92169C14.5461 4.89677 14.4488 4.89046 14.3531 4.90312C14.2574 4.91579 14.1651 4.94718 14.0816 4.9955C13.9128 5.0931 13.7897 5.25376 13.7393 5.44212C13.689 5.63049 13.7155 5.83113 13.8131 5.99992C13.9107 6.16871 14.0714 6.29182 14.2598 6.34216ZM23.9875 18.2202C23.7777 19.8209 22.9921 21.2905 21.7776 22.3542C20.5632 23.4179 19.0029 24.003 17.3884 24C7.80032 24 1.22113e-05 16.1997 1.22113e-05 6.61156C-0.00308067 4.99767 0.581447 3.43784 1.64441 2.22345C2.70737 1.00905 4.17607 0.223144 5.77616 0.0125227C6.14449 -0.0322396 6.51741 0.0437102 6.83891 0.228966C7.1604 0.414221 7.41311 0.698782 7.55908 1.03991L10.1429 6.80748C10.2569 7.06859 10.3041 7.35401 10.2802 7.63794C10.2563 7.92187 10.1619 8.19536 10.0057 8.43367C9.98995 8.45793 9.97278 8.48123 9.95428 8.50347L7.37418 11.5722C7.35851 11.604 7.35037 11.6389 7.35037 11.6744C7.35037 11.7099 7.35851 11.7448 7.37418 11.7767C8.31217 13.6967 10.3253 15.6952 12.2723 16.6319C12.3048 16.6468 12.3404 16.6538 12.3761 16.6525C12.4118 16.6513 12.4467 16.6417 12.4781 16.6246L15.5014 14.0531C15.523 14.0343 15.5459 14.0171 15.57 14.0016C15.8073 13.8435 16.0802 13.747 16.3642 13.7209C16.6481 13.6948 16.9341 13.7399 17.1962 13.8522L22.9809 16.4446C23.3175 16.5938 23.5971 16.8473 23.7784 17.1678C23.9597 17.4882 24.033 17.8585 23.9875 18.2238V18.2202ZM22.5315 18.0389C22.5356 17.9877 22.5235 17.9365 22.4969 17.8926C22.4703 17.8486 22.4306 17.8142 22.3833 17.794L16.5974 15.2017C16.5658 15.1895 16.5319 15.1843 16.4981 15.1864C16.4643 15.1885 16.4313 15.1979 16.4015 15.2139L13.3793 17.7855C13.3573 17.8038 13.334 17.821 13.3107 17.8369C13.0642 18.0013 12.7793 18.099 12.4838 18.1204C12.1883 18.1419 11.8922 18.0864 11.6245 17.9593C9.3763 16.8732 7.13539 14.6531 6.04923 12.4257C5.92148 12.1595 5.86461 11.8649 5.88413 11.5704C5.90366 11.2758 5.99891 10.9913 6.16066 10.7444C6.17643 10.7198 6.19403 10.6965 6.21332 10.6746L8.79219 7.60588C8.80693 7.57381 8.81456 7.53893 8.81456 7.50363C8.81456 7.46834 8.80693 7.43345 8.79219 7.40138L6.21332 1.62891C6.1963 1.58258 6.16568 1.54248 6.12547 1.51385C6.08527 1.48523 6.03735 1.46942 5.988 1.4685H5.95984C4.71441 1.63417 3.57186 2.24748 2.74554 3.19391C1.91922 4.14033 1.46563 5.35517 1.46946 6.61156C1.46946 15.389 8.61096 22.5305 17.3884 22.5305C18.645 22.5343 19.86 22.0806 20.8065 21.254C21.7529 20.4274 22.3661 19.2846 22.5315 18.0389Z" fill="#1D2128"/>
</svg>
