<svg width="64" height="64" viewBox="0 0 64 64" fill="none" xmlns="http://www.w3.org/2000/svg">
<path opacity="0.12" d="M32.0002 58.6582C23.8142 58.6582 15.6262 54.9242 10.2482 47.4502C7.71416 43.9382 6.09616 39.8142 5.55416 35.5122C4.48816 27.1042 7.28816 18.9962 13.1462 13.1382C15.5022 10.7822 17.8222 9.12016 20.2582 8.04416L21.1742 8.64816C21.5482 9.50216 21.7782 13.1902 20.9782 13.6622C20.2662 14.0802 19.5562 14.5782 18.8362 15.1642C15.1562 18.1502 11.5022 24.2922 10.8722 28.9962C9.89416 36.2222 12.4802 43.1742 17.8502 47.9562C25.7702 55.0142 37.9562 55.0942 45.9562 48.1342C50.6942 44.0182 53.3342 38.2142 53.3342 32.0002C53.3342 26.3022 51.1122 20.9422 47.0862 16.9162C45.4682 15.2982 42.6422 13.3342 41.9402 13.0502C42.0282 13.0862 42.2682 10.2942 42.3322 10.3042L43.1682 7.86816C45.1062 8.23216 49.2662 11.5402 50.8562 13.1402C56.7042 18.9882 59.5042 27.0782 58.4482 35.4682C57.9062 39.7622 56.2962 43.8942 53.7722 47.4062C48.4042 54.9082 40.1982 58.6602 32.0042 58.6602L32.0002 58.6582Z" fill="#1D2128"/>
<path opacity="0.24" d="M21.334 7.15647V26.7125C21.334 32.6065 26.108 37.3785 32 37.3785C37.894 37.3785 42.666 32.6045 42.666 26.7125V7.15647C35.742 5.37847 32.268 4.05447 21.334 7.15647Z" fill="#1D2128"/>
<path d="M31.9998 59.5563C16.8078 59.5563 4.44385 47.1923 4.44385 32.0003C4.44385 16.8083 16.8078 4.44434 31.9998 4.44434C47.1918 4.44434 59.5558 16.8083 59.5558 32.0003C59.5558 47.1923 47.1918 59.5563 31.9998 59.5563ZM31.9998 6.22234C17.7858 6.22234 6.22185 17.7863 6.22185 32.0003C6.22185 46.2143 17.7858 57.7783 31.9998 57.7783C46.2138 57.7783 57.7778 46.2143 57.7778 32.0003C57.7778 17.7863 46.2138 6.22234 31.9998 6.22234Z" fill="#1D2128"/>
<path d="M6.47803 7.74042L7.73603 6.48242L13.77 12.5164L12.512 13.7744L6.47803 7.74042Z" fill="#1D2128"/>
<path d="M3.55615 15.1123H10.6682V16.8983H3.55615V15.1123Z" fill="#1D2128"/>
<path d="M15.1118 3.55566H16.8978V10.6677H15.1118V3.55566Z" fill="#1D2128"/>
<path d="M50.2261 12.5115L56.2601 6.47754L57.5181 7.73554L51.4841 13.7695L50.2261 12.5115Z" fill="#1D2128"/>
<path d="M53.334 15.1123H60.446V16.8983H53.334V15.1123Z" fill="#1D2128"/>
<path d="M47.1118 3.55566H48.8978V10.6677H47.1118V3.55566Z" fill="#1D2128"/>
<path d="M37.334 26.666C37.334 29.612 34.946 32 32 32C29.054 32 26.666 29.612 26.666 26.666C26.666 23.72 29.054 21.332 32 21.332C34.946 21.332 37.334 23.72 37.334 26.666Z" fill="#1D2128"/>
<path d="M31.9998 54.2219C19.7418 54.2219 9.77783 44.2579 9.77783 31.9999C9.77783 24.0879 14.0358 16.7199 20.8898 12.7559L21.7778 14.2939C15.4758 17.9379 11.5558 24.7199 11.5558 31.9999C11.5558 43.2719 20.7298 52.4439 31.9998 52.4439C43.2698 52.4439 52.4438 43.2699 52.4438 31.9999C52.4438 24.8079 48.5958 18.0619 42.3998 14.3919L43.3058 12.8639C50.0338 16.8459 54.2218 24.1799 54.2218 32.0019C54.2218 44.2599 44.2578 54.2219 31.9998 54.2219Z" fill="#1D2128"/>
<path d="M31.9998 38.2224C25.6258 38.2224 20.4438 33.0404 20.4438 26.6664V7.11035H22.2218V26.6664C22.2218 32.0624 26.6038 36.4444 31.9998 36.4444C37.3958 36.4444 41.7778 32.0624 41.7778 26.6664V7.11035H43.5558V26.6664C43.5558 33.0404 38.3738 38.2224 31.9998 38.2224Z" fill="#1D2128"/>
</svg>
