<svg width="64" height="64" viewBox="0 0 64 64" fill="none" xmlns="http://www.w3.org/2000/svg">
<path opacity="0.12" d="M29.3341 43.9283C29.3341 44.7023 28.7021 45.3323 27.9301 45.3323H12.9621C12.1881 45.3323 11.5581 44.7003 11.5581 43.9283V27.1823C11.5581 26.4083 12.1901 25.7783 12.9621 25.7783H27.9401C28.7141 25.7783 29.3441 26.4103 29.3441 27.1823V43.9283H29.3341Z" fill="#1D2128"/>
<path opacity="0.12" d="M53.6178 11.5557H42.3818C39.1018 11.5557 36.4438 14.2137 36.4438 17.4937V28.7297C36.4438 32.0097 39.1018 34.6677 42.3818 34.6677H53.6178C56.8978 34.6677 59.5558 32.0097 59.5558 28.7297V17.4937C59.5558 14.2137 56.8978 11.5557 53.6178 11.5557ZM50.0178 25.7597C46.7458 27.8037 43.2978 24.3557 45.3418 21.0837C45.5018 20.8357 45.7238 20.6117 45.9738 20.4517C49.2458 18.4077 52.6938 21.8557 50.6498 25.1277C50.4978 25.3857 50.2758 25.6077 50.0178 25.7597Z" fill="#1D2128"/>
<path d="M52.4442 53.334H11.5562C7.14815 53.334 3.55615 49.742 3.55615 45.334V18.668C3.55615 14.26 7.14815 10.668 11.5562 10.668H43.5562V12.446H11.5562C8.12415 12.446 5.33415 15.238 5.33415 18.668V45.334C5.33415 48.766 8.12615 51.556 11.5562 51.556H52.4442C55.8762 51.556 58.6662 48.764 58.6662 45.334V28.446H60.4442V45.334C60.4442 49.742 56.8522 53.334 52.4442 53.334Z" fill="#1D2128"/>
<path d="M27.556 46.2216H13.334C11.868 46.2216 10.668 45.0216 10.668 43.5556V27.5556C10.668 26.0896 11.868 24.8896 13.334 24.8896H27.556C29.022 24.8896 30.222 26.0896 30.222 27.5556V43.5556C30.222 45.0216 29.022 46.2216 27.556 46.2216ZM13.334 26.6656C12.846 26.6656 12.446 27.0656 12.446 27.5536V43.5536C12.446 44.0417 12.846 44.4417 13.334 44.4417H27.556C28.044 44.4417 28.444 44.0417 28.444 43.5536V27.5536C28.444 27.0656 28.044 26.6656 27.556 26.6656H13.334Z" fill="#1D2128"/>
<path d="M12.444 21.3343C11.466 21.3343 10.666 20.5343 10.666 19.5563C10.666 18.5783 11.466 17.7783 12.444 17.7783C13.422 17.7783 14.222 18.5783 14.222 19.5563C14.222 20.5343 13.422 21.3343 12.444 21.3343Z" fill="#1D2128"/>
<path d="M46.222 41.778C45.734 41.778 45.334 41.378 45.334 40.89C45.334 40.402 45.734 40.002 46.222 40.002C46.71 40.002 47.11 40.402 47.11 40.89C47.11 41.378 46.71 41.778 46.222 41.778Z" fill="#1D2128"/>
<path d="M49.7781 41.778C49.2901 41.778 48.8901 41.378 48.8901 40.89C48.8901 40.402 49.2901 40.002 49.7781 40.002C50.2661 40.002 50.6661 40.402 50.6661 40.89C50.6661 41.378 50.2661 41.778 49.7781 41.778Z" fill="#1D2128"/>
<path d="M46.222 45.3336C45.734 45.3336 45.334 44.9336 45.334 44.4456C45.334 43.9576 45.734 43.5576 46.222 43.5576C46.71 43.5576 47.11 43.9576 47.11 44.4456C47.11 44.9336 46.71 45.3336 46.222 45.3336Z" fill="#1D2128"/>
<path d="M49.7781 45.3336C49.2901 45.3336 48.8901 44.9336 48.8901 44.4456C48.8901 43.9576 49.2901 43.5576 49.7781 43.5576C50.2661 43.5576 50.6661 43.9576 50.6661 44.4456C50.6661 44.9336 50.2661 45.3336 49.7781 45.3336Z" fill="#1D2128"/>
<path d="M22.2222 12.4437H18.6662C17.6882 12.4437 16.8882 11.6437 16.8882 10.6657C16.8882 9.6877 17.6882 8.8877 18.6662 8.8877H22.2222C23.2002 8.8877 24.0002 9.6877 24.0002 10.6657C24.0002 11.6437 23.2002 12.4437 22.2222 12.4437Z" fill="#1D2128"/>
<path d="M54.2222 35.556H41.7782C38.3462 35.556 35.5562 32.764 35.5562 29.334V16.89C35.5562 13.458 38.3482 10.668 41.7782 10.668H54.2222C57.6542 10.668 60.4442 13.46 60.4442 16.89V29.334C60.4442 32.766 57.6522 35.556 54.2222 35.556ZM41.7782 12.444C39.3242 12.444 37.3342 14.436 37.3342 16.888V29.332C37.3342 31.786 39.3262 33.776 41.7782 33.776H54.2222C56.6762 33.776 58.6662 31.784 58.6662 29.332V16.888C58.6662 14.434 56.6742 12.444 54.2222 12.444H41.7782Z" fill="#1D2128"/>
<path d="M48.0002 16C44.0722 16 40.8882 19.182 40.8882 23.112C40.8882 27.042 44.0702 30.224 48.0002 30.224C51.9302 30.224 55.1122 27.042 55.1122 23.112C55.1122 19.182 51.9302 16 48.0002 16ZM48.0002 24.888C47.0222 24.888 46.2222 24.088 46.2222 23.11C46.2222 22.132 47.0222 21.332 48.0002 21.332C48.9782 21.332 49.7782 22.132 49.7782 23.11C49.7782 24.088 48.9782 24.888 48.0002 24.888Z" fill="#1D2128"/>
</svg>
