<svg width="64" height="64" viewBox="0 0 64 64" fill="none" xmlns="http://www.w3.org/2000/svg">
<path opacity="0.12" d="M48.7642 9.77786C48.7642 8.52386 49.3322 7.35186 48.7642 6.33786C47.4482 3.96386 44.8182 2.42586 41.8482 2.70186C38.1602 3.04786 35.4302 6.31986 35.4302 10.0179V27.5559L40.7642 26.6679V16.5699C40.7642 15.1559 41.4582 13.8759 42.5682 13.0859L40.7642 16.8719L42.5422 16.8799C45.2182 16.8799 47.5562 15.3959 48.7642 13.2079C49.3322 12.2039 48.7642 11.0319 48.7642 9.77786Z" fill="#1D2128"/>
<path opacity="0.12" d="M15.2358 15.9995C15.2358 14.7455 14.6678 13.5735 15.2358 12.5595C16.5518 10.1855 19.1818 8.64754 22.1518 8.92354C25.8398 9.26954 28.5698 12.5415 28.5698 16.2395V27.5555L23.2358 26.6675V22.7915C23.2358 21.3775 22.5418 20.0975 21.4318 19.3075L23.2358 23.0935L21.4578 23.1015C18.7818 23.1015 16.4438 21.6175 15.2358 19.4295C14.6678 18.4255 15.2358 17.2535 15.2358 15.9995Z" fill="#1D2128"/>
<path d="M44.4438 61.3343H19.5558C14.1598 61.3343 9.77783 56.9523 9.77783 51.5563V27.5563C9.77783 26.5783 10.5778 25.7783 11.5558 25.7783H22.1158C22.9078 25.7783 23.6898 25.9643 24.3918 26.3203C24.8538 26.5523 25.3598 26.6663 25.8758 26.6663H38.1078C38.6238 26.6663 39.1398 26.5423 39.5918 26.3203C40.2938 25.9643 41.0858 25.7783 41.8758 25.7783H52.4438C53.4218 25.7783 54.2218 26.5783 54.2218 27.5563V51.5563C54.2218 56.9523 49.8398 61.3343 44.4438 61.3343ZM11.5558 27.5563V51.5563C11.5558 55.9643 15.1478 59.5563 19.5558 59.5563H44.4438C48.8518 59.5563 52.4438 55.9643 52.4438 51.5563V27.5563H41.8838C41.3678 27.5563 40.8518 27.6803 40.3998 27.9023C39.6978 28.2583 38.9058 28.4443 38.1158 28.4443H25.8838C25.0918 28.4443 24.3098 28.2583 23.6078 27.9023C23.1458 27.6803 22.6298 27.5563 22.1138 27.5563H11.5558Z" fill="#1D2128"/>
<path d="M32.8878 33.7776C32.8878 34.2676 32.4898 34.6656 31.9998 34.6656C31.5098 34.6656 31.1118 34.2676 31.1118 33.7776C31.1118 33.2876 31.5098 32.8896 31.9998 32.8896C32.4898 32.8896 32.8878 33.2876 32.8878 33.7776Z" fill="#1D2128"/>
<path d="M46.0538 9.77765C46.0538 10.2676 45.6558 10.6656 45.1658 10.6656C44.6758 10.6656 44.2778 10.2676 44.2778 9.77765C44.2778 9.28765 44.6758 8.88965 45.1658 8.88965C45.6558 8.88965 46.0538 9.28765 46.0538 9.77765Z" fill="#1D2128"/>
<path d="M35.5559 28.3377C35.1199 28.3377 34.7739 27.9917 34.7739 27.5557V10.0177C34.7739 5.85767 37.9019 2.29367 41.9019 1.91967C45.0479 1.62567 48.0539 3.20767 49.5739 5.95567C50.0799 6.86167 49.9299 7.81367 49.7959 8.64967C49.7339 9.04167 49.6719 9.41367 49.6719 9.77767C49.6719 10.1417 49.7339 10.5157 49.7959 10.9057C49.9299 11.7417 50.0799 12.6917 49.5739 13.5997C48.1779 16.1057 45.5379 17.6717 42.6679 17.6717L40.8899 17.6637C40.4539 17.6637 40.1079 17.3077 40.1079 16.8717C40.1079 16.4357 40.4279 16.1077 40.8999 16.0897L42.6779 16.0977C44.9719 16.0977 47.0959 14.8437 48.2159 12.8357C48.4479 12.4277 48.3839 11.9297 48.2599 11.1477C48.1879 10.7297 48.1179 10.2597 48.1179 9.76967C48.1179 9.27967 48.1899 8.80967 48.2599 8.39167C48.3839 7.61767 48.4459 7.11967 48.2159 6.70367C46.9899 4.49967 44.5799 3.23767 42.0559 3.46767C38.8559 3.76967 36.3499 6.64167 36.3499 10.0097V27.5557C36.3419 27.9917 35.9919 28.3377 35.5559 28.3377Z" fill="#1D2128"/>
<path d="M40.888 27.4485C40.452 27.4485 40.106 27.1025 40.106 26.6665V16.5685C40.106 14.9325 40.906 13.3945 42.24 12.4445C42.596 12.1965 43.084 12.2765 43.334 12.6305C43.584 12.9845 43.502 13.4745 43.148 13.7245C42.224 14.3725 41.682 15.4405 41.682 16.5685V26.6665C41.674 27.1025 41.324 27.4485 40.888 27.4485Z" fill="#1D2128"/>
<path d="M39.1121 10.498C38.7121 10.498 38.3921 10.178 38.3921 9.77795C38.3921 7.42195 40.3121 5.50195 42.6681 5.50195C43.0681 5.50195 43.3881 5.82195 43.3881 6.22195C43.3881 6.62195 43.0681 6.94195 42.6681 6.94195C41.1041 6.94195 39.8321 8.21395 39.8321 9.77795C39.8321 10.178 39.5121 10.498 39.1121 10.498Z" fill="#1D2128"/>
<path d="M19.9821 16.0003C19.9821 16.4903 19.5841 16.8883 19.0941 16.8883C18.6041 16.8883 18.2061 16.4903 18.2061 16.0003C18.2061 15.5103 18.6041 15.1123 19.0941 15.1123C19.5841 15.1123 19.9821 15.5103 19.9821 16.0003Z" fill="#1D2128"/>
<path d="M28.6942 28.3377C28.2582 28.3377 27.9122 27.9917 27.9122 27.5557V16.2397C27.9122 12.8717 25.4062 9.9997 22.2062 9.6977C19.6902 9.4577 17.2722 10.7297 16.0462 12.9337C15.8142 13.3417 15.8782 13.8397 16.0022 14.6217C16.0642 15.0397 16.1442 15.5097 16.1442 15.9997C16.1442 16.4897 16.0722 16.9597 16.0022 17.3777C15.8782 18.1517 15.8162 18.6497 16.0462 19.0657C17.1662 21.0837 19.2822 22.3277 21.5842 22.3277L23.3522 22.3197C23.3522 22.3197 23.3522 22.3197 23.3602 22.3197C23.7862 22.3197 24.1422 22.6657 24.1422 23.1017C24.1422 23.5377 23.7962 23.8837 23.3602 23.8937L21.5822 23.9017C18.7102 23.9017 16.0622 22.3457 14.6662 19.8297C14.1602 18.9237 14.3102 17.9717 14.4442 17.1357C14.5062 16.7437 14.5682 16.3717 14.5682 16.0077C14.5682 15.6437 14.5062 15.2697 14.4442 14.8797C14.3102 14.0437 14.1602 13.0937 14.6662 12.1857C16.1862 9.4397 19.2002 7.8577 22.3382 8.1497C26.3382 8.5237 29.4662 12.0877 29.4662 16.2477V27.5537C29.4742 27.9897 29.1282 28.3357 28.6922 28.3357L28.6942 28.3377Z" fill="#1D2128"/>
<path d="M23.3599 27.4476C22.9239 27.4476 22.5779 27.1016 22.5779 26.6656V22.7896C22.5779 21.6616 22.0259 20.6036 21.1119 19.9456C20.7559 19.6976 20.6759 19.2076 20.9259 18.8516C21.1759 18.4956 21.6639 18.4156 22.0199 18.6656C23.3539 19.6076 24.1539 21.1536 24.1539 22.7816V26.6656C24.1459 27.1016 23.7959 27.4476 23.3599 27.4476Z" fill="#1D2128"/>
<path d="M25.1378 16.7196C24.7378 16.7196 24.4178 16.3996 24.4178 15.9996C24.4178 14.4356 23.1458 13.1636 21.5818 13.1636C21.1818 13.1636 20.8618 12.8436 20.8618 12.4436C20.8618 12.0436 21.1818 11.7236 21.5818 11.7236C23.9378 11.7236 25.8578 13.6436 25.8578 15.9996C25.8578 16.3996 25.5378 16.7196 25.1378 16.7196Z" fill="#1D2128"/>
<path d="M17.7521 27.3959C13.4321 27.3959 9.91211 23.8759 9.91211 19.5559C9.91211 16.3999 11.7881 13.5639 14.6941 12.3379L15.2621 13.6719C12.8881 14.6759 11.3601 16.9879 11.3601 19.5559C11.3601 23.0759 14.2221 25.9379 17.7421 25.9379V27.3959H17.7521Z" fill="#1D2128"/>
<path d="M27.6719 11.7158H35.4319V13.1638H27.6719V11.7158Z" fill="#1D2128"/>
<path d="M46.1958 27.3964V25.9484C49.7158 25.9484 52.5778 23.0864 52.5778 19.5664C52.5778 17.0064 51.0578 14.6944 48.6938 13.6904L49.2618 12.3564C52.1498 13.5924 54.0258 16.4184 54.0258 19.5644C54.0338 23.8764 50.5258 27.3964 46.1958 27.3964Z" fill="#1D2128"/>
</svg>
