<svg width="64" height="62" viewBox="0 0 64 62" fill="none" xmlns="http://www.w3.org/2000/svg">
<path fill-rule="evenodd" clip-rule="evenodd" d="M2.6665 52.0071C2.6665 50.9389 3.58384 50.0742 4.71184 50.0742H59.2878C60.4158 50.0742 61.3332 50.9389 61.3332 52.0071C61.3332 53.0753 60.4158 53.94 59.2878 53.94H4.71184C4.17196 53.942 3.65331 53.7396 3.26982 53.3772C2.88632 53.0147 2.66933 52.522 2.6665 52.0071Z" fill="#1D2128"/>
<path opacity="0.5" d="M45.6455 46.8186C50.7922 46.8186 53.3629 46.8186 54.9602 45.308C56.5602 43.7998 56.5602 41.3684 56.5602 36.5083V23.6241C56.5602 16.3352 56.5602 12.6881 54.1602 10.4246C51.7655 8.16113 47.9069 8.16113 40.1869 8.16113H23.8135C16.0962 8.16113 12.2402 8.16113 9.8402 10.4246C7.44287 12.6881 7.44287 16.3352 7.44287 23.6241V36.5108C7.44287 41.3684 7.44287 43.7998 9.04287 45.3105C10.6402 46.8186 13.2135 46.8186 18.3575 46.8186H45.6455ZM54.2743 44.5803L54.2731 44.5814C53.6929 45.1301 52.8923 45.4618 51.5078 45.6378C50.0999 45.8167 48.2456 45.8186 45.6455 45.8186H18.3575C15.7588 45.8186 13.9044 45.8168 12.4961 45.6381C11.1107 45.4623 10.3094 45.131 9.7294 44.5834C9.15598 44.042 8.81553 43.3068 8.63288 42.0247C8.44525 40.7077 8.44287 38.9695 8.44287 36.5108V23.6241C8.44287 19.9498 8.44525 17.2998 8.73256 15.2807C9.0149 13.2967 9.55469 12.0697 10.5263 11.1521C11.508 10.2263 12.8311 9.70623 14.9588 9.43611C17.1098 9.16303 19.9281 9.16113 23.8135 9.16113H40.1869C44.0736 9.16113 46.8933 9.16303 49.0446 9.43611C51.1729 9.70626 52.4946 10.2263 53.4733 11.1514L53.4741 11.1521C54.4471 12.0698 54.9875 13.2968 55.2702 15.2809C55.5578 17.2998 55.5602 19.9497 55.5602 23.6241V36.5083C55.5602 38.9683 55.5578 40.7071 55.3702 42.0241C55.1875 43.3062 54.8471 44.0403 54.2743 44.5803Z" fill="#E4E4E5" stroke="black" stroke-width="2"/>
<path d="M23.8134 37.1543C23.2735 37.1523 22.7549 37.3547 22.3714 37.7171C21.9879 38.0795 21.7709 38.5723 21.7681 39.0872C21.7681 40.1554 22.6854 41.0201 23.8161 41.0201H40.1894C41.3174 41.0201 42.2347 40.1554 42.2347 39.0872C42.2347 38.019 41.3174 37.1543 40.1867 37.1543H23.8134Z" fill="#E4E4E5"/>
</svg>
