<svg width="64" height="64" viewBox="0 0 64 64" fill="none" xmlns="http://www.w3.org/2000/svg">
<path d="M44.4438 61.334H19.5558C17.1018 61.334 15.1118 59.342 15.1118 56.89V7.11197C15.1118 4.65797 17.1038 2.66797 19.5558 2.66797H44.4438C46.8978 2.66797 48.8878 4.65997 48.8878 7.11197V56.89C48.8878 59.344 46.8958 61.334 44.4438 61.334ZM19.5558 4.44397C18.0898 4.44397 16.8898 5.64397 16.8898 7.10997V56.888C16.8898 58.354 18.0898 59.554 19.5558 59.554H44.4438C45.9098 59.554 47.1098 58.354 47.1098 56.888V7.10997C47.1098 5.64397 45.9098 4.44397 44.4438 4.44397H19.5558Z" fill="#1D2128"/>
<path d="M39.9998 57.778H23.9998C23.5118 57.778 23.1118 57.378 23.1118 56.89C23.1118 56.402 23.5118 56.002 23.9998 56.002H39.9998C40.4878 56.002 40.8878 56.402 40.8878 56.89C40.8878 57.378 40.4878 57.778 39.9998 57.778Z" fill="#1D2128"/>
<path d="M38.452 15.828C38.674 15.97 39.1 16.094 39.484 16.094C40.692 16.094 41.342 15.366 41.396 14.28C41.182 14.654 40.676 14.946 39.992 14.946C38.952 14.946 38 14.234 38 13.008C38 11.816 38.96 11 40.168 11C41.368 11 42.444 11.854 42.444 13.694C42.444 15.782 41.448 17.028 39.492 17.028C39.02 17.028 38.452 16.894 38.158 16.7L38.452 15.828ZM40.14 11.908C39.554 11.908 39.038 12.326 39.038 12.974C39.038 13.65 39.544 14.05 40.14 14.05C40.718 14.05 41.242 13.632 41.242 12.974C41.242 12.334 40.718 11.908 40.14 11.908Z" fill="#1D2128"/>
<path d="M30.5061 11.832C30.8981 11.832 31.2261 12.152 31.2261 12.552C31.2261 12.944 30.8981 13.264 30.5061 13.264C30.1061 13.264 29.7861 12.944 29.7861 12.552C29.7861 12.152 30.1061 11.832 30.5061 11.832ZM30.5161 14.836C30.9081 14.836 31.2361 15.156 31.2361 15.556C31.2361 15.948 30.9081 16.268 30.5161 16.268C30.1161 16.268 29.7961 15.948 29.7961 15.556C29.7961 15.156 30.1161 14.836 30.5161 14.836Z" fill="#1D2128"/>
<path d="M23 14.342L25.454 11H26.822V14.556H27.79V15.498H26.822V16.76H25.774V15.498H23V14.342ZM25.764 12.074L23.95 14.554H25.764V12.074Z" fill="#1D2128"/>
<path d="M35.396 16.758V12.812H34V12.084C34.826 12.066 35.396 11.604 35.52 11H36.444V16.76L35.396 16.758Z" fill="#1D2128"/>
<path d="M14.666 18.2223V15.5563C14.666 15.3083 14.862 15.1123 15.11 15.1123C15.358 15.1123 15.554 15.3083 15.554 15.5563V18.2223C15.554 18.4703 15.358 18.6663 15.11 18.6663C14.862 18.6663 14.666 18.4703 14.666 18.2223Z" fill="#1D2128"/>
<path d="M14.666 23.5563V20.8903C14.666 20.6423 14.862 20.4463 15.11 20.4463C15.358 20.4463 15.554 20.6423 15.554 20.8903V23.5563C15.554 23.8043 15.358 24.0003 15.11 24.0003C14.862 24.0003 14.666 23.8043 14.666 23.5563Z" fill="#1D2128"/>
<path d="M49.3338 16.444V22.666C49.3338 22.914 49.1378 23.11 48.8898 23.11C48.6418 23.11 48.4458 22.914 48.4458 22.666V16.444C48.4458 16.196 48.6418 16 48.8898 16C49.1378 16 49.3338 16.196 49.3338 16.444Z" fill="#1D2128"/>
<path opacity="0.24" d="M43.5562 25.7783H20.4442C19.9562 25.7783 19.5562 25.3783 19.5562 24.8903V21.3343C19.5562 20.8463 19.9562 20.4463 20.4442 20.4463H43.5562C44.0442 20.4463 44.4442 20.8463 44.4442 21.3343V24.8903C44.4442 25.3783 44.0442 25.7783 43.5562 25.7783Z" fill="#1D2128"/>
<path opacity="0.24" d="M43.5562 32H20.4442C19.9562 32 19.5562 31.6 19.5562 31.112V27.556C19.5562 27.068 19.9562 26.668 20.4442 26.668H43.5562C44.0442 26.668 44.4442 27.068 44.4442 27.556V31.112C44.4442 31.6 44.0442 32 43.5562 32Z" fill="#1D2128"/>
<path d="M32.75 8H31.25C31.1123 8 31 7.39985 31 6.66617C31 6.29825 31.2983 6 31.6662 6H32.3338C32.7017 6 33 6.29825 33 6.66617C33 7.39985 32.8878 8 32.75 8Z" fill="#1D2128"/>
</svg>
