<svg width="64" height="64" viewBox="0 0 64 64" fill="none" xmlns="http://www.w3.org/2000/svg">
<path opacity="0.12" d="M36.4438 59.5556H27.5558C26.5778 59.5556 25.7778 58.7556 25.7778 57.7776V48.8896H38.2218V57.7776C38.2218 58.7556 37.4218 59.5556 36.4438 59.5556Z" fill="#1D2128"/>
<path d="M57.7782 49.7776H6.22215C4.75615 49.7776 3.55615 48.5776 3.55615 47.1116V6.22362C3.55615 4.75762 4.75615 3.55762 6.22215 3.55762H57.7782C59.2442 3.55762 60.4442 4.75762 60.4442 6.22362V47.1116C60.4442 48.5776 59.2442 49.7776 57.7782 49.7776ZM6.22215 5.33362C5.73415 5.33362 5.33415 5.73362 5.33415 6.22162V47.1096C5.33415 47.5976 5.73415 47.9976 6.22215 47.9976H57.7782C58.2662 47.9976 58.6662 47.5976 58.6662 47.1096V6.22162C58.6662 5.73362 58.2662 5.33362 57.7782 5.33362H6.22215Z" fill="#1D2128"/>
<path d="M56.8879 40.8877H7.10986V8.8877H56.8879V40.8877ZM8.88786 39.1117H55.1099V10.6677H8.88786V39.1117Z" fill="#1D2128"/>
<path opacity="0.12" d="M57.4838 48.8884H6.51585C5.36985 48.8884 4.44385 47.9644 4.44385 46.8164V6.51438C4.44385 5.36838 5.36785 4.44238 6.51585 4.44238H57.4758C58.6318 4.44238 59.5558 5.36638 59.5558 6.51438V46.8084C59.5558 47.9644 58.6318 48.8884 57.4838 48.8884ZM10.0718 40.0004H53.9198C55.0658 40.0004 55.9918 39.0764 55.9918 37.9284V11.8484C55.9918 10.7024 55.0678 9.77638 53.9198 9.77638H10.0718C8.92585 9.77638 7.99985 10.7004 7.99985 11.8484V37.9204C7.99985 39.0764 8.92385 40.0004 10.0718 40.0004Z" fill="#1D2128"/>
<path d="M32.8878 7.11163C32.8878 7.60163 32.4898 7.99963 31.9998 7.99963C31.5098 7.99963 31.1118 7.60163 31.1118 7.11163C31.1118 6.62163 31.5098 6.22363 31.9998 6.22363C32.4898 6.22363 32.8878 6.62163 32.8878 7.11163Z" fill="#1D2128"/>
<path d="M36.4441 60.3999H27.5561C26.1081 60.3999 24.9341 59.2179 24.9341 57.7779V48.0439H39.0761V57.7779C39.0681 59.2259 37.8941 60.3999 36.4441 60.3999ZM26.6221 49.7339V57.7779C26.6221 58.2939 27.0401 58.7119 27.5561 58.7119H36.4441C36.9601 58.7119 37.3781 58.2939 37.3781 57.7779V49.7339H26.6221Z" fill="#1D2128"/>
<path d="M25.7778 55.0479H38.2218V56.7458H25.7778V55.0479Z" fill="#1D2128"/>
<path d="M38.452 18.828C38.674 18.97 39.1 19.094 39.484 19.094C40.692 19.094 41.342 18.366 41.396 17.28C41.182 17.654 40.676 17.946 39.992 17.946C38.952 17.946 38 17.234 38 16.008C38 14.816 38.96 14 40.168 14C41.368 14 42.444 14.854 42.444 16.694C42.444 18.782 41.448 20.028 39.492 20.028C39.02 20.028 38.452 19.894 38.158 19.7L38.452 18.828ZM40.14 14.908C39.554 14.908 39.038 15.326 39.038 15.974C39.038 16.65 39.544 17.05 40.14 17.05C40.718 17.05 41.242 16.632 41.242 15.974C41.242 15.334 40.718 14.908 40.14 14.908Z" fill="#1D2128"/>
<path d="M30.5061 15.1924C30.8981 15.1924 31.2261 15.5124 31.2261 15.9124C31.2261 16.3044 30.8981 16.6244 30.5061 16.6244C30.1061 16.6244 29.7861 16.3044 29.7861 15.9124C29.7861 15.5124 30.1061 15.1924 30.5061 15.1924ZM30.5161 18.1964C30.9081 18.1964 31.2361 18.5164 31.2361 18.9164C31.2361 19.3084 30.9081 19.6284 30.5161 19.6284C30.1161 19.6284 29.7961 19.3084 29.7961 18.9164C29.7961 18.5164 30.1161 18.1964 30.5161 18.1964Z" fill="#1D2128"/>
<path d="M22 17.342L24.454 14H25.822V17.556H26.79V18.498H25.822V19.76H24.774V18.498H22V17.342ZM24.764 15.074L22.95 17.554H24.764V15.074Z" fill="#1D2128"/>
<path d="M34.396 19.758V15.812H33V15.084C33.826 15.066 34.396 14.604 34.52 14H35.444V19.76H34.396V19.758Z" fill="#1D2128"/>
</svg>
