<svg width="64" height="64" viewBox="0 0 64 64" fill="none" xmlns="http://www.w3.org/2000/svg">
<path d="M56.0002 54.2223H8.00015C5.54615 54.2223 3.55615 52.2303 3.55615 49.7783V14.2223C3.55615 11.7683 5.54815 9.77832 8.00015 9.77832H56.0002C58.4542 9.77832 60.4442 11.7703 60.4442 14.2223V49.7783C60.4442 52.2323 58.4522 54.2223 56.0002 54.2223ZM8.00015 11.5563C6.53415 11.5563 5.33415 12.7563 5.33415 14.2223V49.7783C5.33415 51.2443 6.53415 52.4443 8.00015 52.4443H56.0002C57.4662 52.4443 58.6662 51.2443 58.6662 49.7783V14.2223C58.6662 12.7563 57.4662 11.5563 56.0002 11.5563H8.00015Z" fill="#1D2128"/>
<path d="M40.8882 50.6656H23.1102C22.6222 50.6656 22.2222 50.2656 22.2222 49.7776C22.2222 49.2896 22.6222 48.8896 23.1102 48.8896H40.8882C41.3762 48.8896 41.7762 49.2896 41.7762 49.7776C41.7762 50.2656 41.3762 50.6656 40.8882 50.6656Z" fill="#1D2128"/>
<path d="M37.452 20.828C37.674 20.97 38.1 21.094 38.484 21.094C39.692 21.094 40.342 20.366 40.396 19.28C40.182 19.654 39.676 19.946 38.992 19.946C37.952 19.946 37 19.234 37 18.008C37 16.816 37.96 16 39.168 16C40.368 16 41.444 16.854 41.444 18.694C41.444 20.782 40.448 22.028 38.492 22.028C38.02 22.028 37.452 21.894 37.158 21.7L37.452 20.828ZM39.14 16.908C38.554 16.908 38.038 17.326 38.038 17.974C38.038 18.65 38.544 19.05 39.14 19.05C39.718 19.05 40.242 18.632 40.242 17.974C40.242 17.334 39.718 16.908 39.14 16.908Z" fill="#1D2128"/>
<path d="M30.5061 17.1641C30.8981 17.1641 31.2261 17.4841 31.2261 17.8841C31.2261 18.2761 30.8981 18.5961 30.5061 18.5961C30.1061 18.5961 29.7861 18.2761 29.7861 17.8841C29.7861 17.4841 30.1061 17.1641 30.5061 17.1641ZM30.5161 20.1681C30.9081 20.1681 31.2361 20.4881 31.2361 20.8881C31.2361 21.2801 30.9081 21.6001 30.5161 21.6001C30.1161 21.6001 29.7961 21.2801 29.7961 20.8881C29.7961 20.4881 30.1161 20.1681 30.5161 20.1681Z" fill="#1D2128"/>
<path d="M24 19.342L26.454 16H27.822V19.556H28.79V20.498H27.822V21.76H26.774V20.498H24V19.342ZM26.764 17.076L24.95 19.556H26.764V17.076Z" fill="#1D2128"/>
<path d="M34.396 21.758V17.812H33V17.084C33.826 17.066 34.396 16.604 34.52 16H35.444V21.76H34.396V21.758Z" fill="#1D2128"/>
<path d="M50.1059 8.8884H17.6439C17.3599 8.8884 17.0759 8.8624 16.7899 8.8164L13.1899 8.2204C12.9419 8.1764 12.9419 7.8204 13.1899 7.7844L16.7899 7.1884C17.0739 7.1344 17.3579 7.1084 17.6439 7.1084H50.1059C50.5939 7.1084 50.9939 7.5084 50.9939 7.9964C50.9939 8.4844 50.5939 8.8844 50.1059 8.8844V8.8884Z" fill="#1D2128"/>
<path d="M12.8878 10.222H10.2218C9.97383 10.222 9.77783 10.026 9.77783 9.77798C9.77783 9.52998 9.97383 9.33398 10.2218 9.33398H12.8878C13.1358 9.33398 13.3318 9.52998 13.3318 9.77798C13.3318 10.026 13.1358 10.222 12.8878 10.222Z" fill="#1D2128"/>
<path d="M3.99982 16.444V22.666C3.99982 22.914 3.80382 23.11 3.55582 23.11C3.30782 23.11 3.11182 22.914 3.11182 22.666V16.444C3.11182 16.196 3.30782 16 3.55582 16C3.80382 16 3.99982 16.196 3.99982 16.444Z" fill="#1D2128"/>
<path opacity="0.24" d="M47.112 31.1123H16.89C16.402 31.1123 16.002 30.7123 16.002 30.2243V26.6683C16.002 26.1803 16.402 25.7803 16.89 25.7803H47.112C47.6 25.7803 48 26.1803 48 26.6683V30.2243C48 30.7123 47.6 31.1123 47.112 31.1123Z" fill="#1D2128"/>
<path opacity="0.24" d="M47.112 37.334H16.89C16.402 37.334 16.002 36.934 16.002 36.446V32.89C16.002 32.402 16.402 32.002 16.89 32.002H47.112C47.6 32.002 48 32.402 48 32.89V36.446C48 36.934 47.6 37.334 47.112 37.334Z" fill="#1D2128"/>
</svg>
