<svg width="64" height="64" viewBox="0 0 64 64" fill="none" xmlns="http://www.w3.org/2000/svg">
<path d="M59.5558 51.5556H4.44383C2.97783 51.5556 1.77783 50.3556 1.77783 48.8896V11.5556C1.77783 10.0896 2.97783 8.88965 4.44383 8.88965H59.5558C61.0218 8.88965 62.2218 10.0896 62.2218 11.5556V48.8896C62.2218 50.3556 61.0218 51.5556 59.5558 51.5556ZM4.44383 10.6656C3.95583 10.6656 3.55583 11.0656 3.55583 11.5536V48.8876C3.55583 49.3756 3.95583 49.7757 4.44383 49.7757H59.5558C60.0438 49.7757 60.4438 49.3756 60.4438 48.8876V11.5536C60.4438 11.0656 60.0438 10.6656 59.5558 10.6656H4.44383Z" fill="#1D2128"/>
<path d="M58.666 48.0003H5.33203V12.4443H58.666V48.0003ZM7.11203 46.2223H56.89V14.2223H7.11203V46.2223Z" fill="#1D2128"/>
<path opacity="0.12" d="M61.334 50.6663H2.66797V9.77832H61.334V50.6663ZM6.22197 47.1123H57.778V13.3343H6.22197V47.1123Z" fill="#1D2128"/>
<path d="M34.6658 52.444H29.3318C28.8438 52.444 28.4438 52.044 28.4438 51.556V50.668H35.5558V51.556C35.5558 52.044 35.1538 52.444 34.6658 52.444Z" fill="#1D2128"/>
<path d="M10.6659 55.1117C10.4339 55.1117 10.2119 55.0237 10.0339 54.8537C9.68791 54.5077 9.68791 53.9477 10.0339 53.5997L13.5899 50.0437C13.9359 49.6977 14.4959 49.6977 14.8439 50.0437C15.1919 50.3897 15.1899 50.9497 14.8439 51.2977L11.2879 54.8537C11.1199 55.0217 10.8959 55.1117 10.6659 55.1117Z" fill="#1D2128"/>
<path d="M17.7781 55.1124C17.5461 55.1124 17.3241 55.0244 17.1461 54.8544L13.5901 51.2984C13.2441 50.9524 13.2441 50.3924 13.5901 50.0444C13.9361 49.6964 14.4961 49.6984 14.8441 50.0444L18.4001 53.6004C18.7461 53.9464 18.7461 54.5064 18.4001 54.8544C18.2321 55.0224 18.0081 55.1124 17.7781 55.1124Z" fill="#1D2128"/>
<path d="M46.2221 55.1117C45.9901 55.1117 45.7681 55.0237 45.5901 54.8537C45.2441 54.5077 45.2441 53.9477 45.5901 53.5997L49.1461 50.0437C49.4921 49.6977 50.0521 49.6977 50.4001 50.0437C50.7481 50.3897 50.7461 50.9497 50.4001 51.2977L46.8441 54.8537C46.6761 55.0217 46.4521 55.1117 46.2221 55.1117Z" fill="#1D2128"/>
<path d="M53.3342 55.1124C53.1022 55.1124 52.8802 55.0244 52.7022 54.8544L49.1462 51.2984C48.8002 50.9524 48.8002 50.3924 49.1462 50.0444C49.4922 49.6964 50.0522 49.6984 50.4002 50.0444L53.9562 53.6004C54.3022 53.9464 54.3022 54.5064 53.9562 54.8544C53.7882 55.0224 53.5642 55.1124 53.3342 55.1124Z" fill="#1D2128"/>
<path d="M10.4878 21.7419L13.3678 17.9639H15.3678V22.0359H16.4798V23.4399H15.3778V24.8879H13.6898V23.4479H10.4898L10.4878 21.7419ZM13.6878 19.7599L11.9458 22.0439H13.6878V19.7599Z" fill="#1D2128"/>
<path d="M19.724 22.1601L18.942 23.0321V24.8901H17.396V17.9561H18.942V20.8721L21.476 17.9561H23.512L20.81 20.9601L23.522 24.8881H21.594L19.728 22.1601H19.724Z" fill="#1D2128"/>
</svg>
