<svg width="64" height="64" viewBox="0 0 64 64" fill="none" xmlns="http://www.w3.org/2000/svg">
<path opacity="0.24" d="M42.666 16H21.332C18.39 16 15.998 18.392 15.998 21.334V42.668C15.998 45.61 18.39 48.002 21.332 48.002H42.666C45.608 48.002 48 45.61 48 42.668V21.334C48 18.392 45.608 16 42.666 16ZM44.444 42.666L42.666 44.444H21.332L19.554 42.666V21.332L21.332 19.554H42.666L44.444 21.332V42.666Z" fill="#1D2128"/>
<path d="M47.1118 28.4444V24.8884C47.1118 23.9104 47.9118 23.1104 48.8898 23.1104C49.8678 23.1104 50.6678 23.9104 50.6678 24.8884V28.4444C50.6678 29.4224 49.8678 30.2224 48.8898 30.2224C47.9118 30.2224 47.1118 29.4224 47.1118 28.4444Z" fill="#1D2128"/>
<path d="M48 40.8877V33.7757C48 33.2877 48.4 32.8877 48.888 32.8877C49.376 32.8877 49.776 33.2877 49.776 33.7757V40.8877C49.776 41.3757 49.376 41.7757 48.888 41.7757C48.4 41.7757 48 41.3757 48 40.8877Z" fill="#1D2128"/>
<path d="M42.6659 48.8884H21.3319C17.8999 48.8884 15.1099 46.0964 15.1099 42.6664V21.3324C15.1099 17.9004 17.9019 15.1104 21.3319 15.1104H42.6659C46.0979 15.1104 48.8879 17.9024 48.8879 21.3324V42.6664C48.8879 46.0984 46.0959 48.8884 42.6659 48.8884ZM21.3339 16.8884C18.8799 16.8884 16.8899 18.8804 16.8899 21.3324V42.6664C16.8899 45.1204 18.8819 47.1104 21.3339 47.1104H42.6679C45.1219 47.1104 47.1119 45.1184 47.1119 42.6664V21.3324C47.1119 18.8784 45.1199 16.8884 42.6679 16.8884H21.3339Z" fill="#1D2128"/>
<path d="M44.4439 17.2538L43.8119 16.6218C41.3499 14.1678 39.9979 10.8978 39.9979 7.41381C39.9979 6.57781 39.4739 5.85781 38.6819 5.59981C34.2459 4.84381 29.7479 4.84381 25.3139 5.59981C24.5219 5.85781 23.9979 6.58581 23.9979 7.41381C23.9979 10.8978 22.6459 14.1698 20.1839 16.6218L19.5519 17.2538L18.2979 15.9998L18.9299 15.3678C21.0459 13.2438 22.2179 10.4158 22.2179 7.41181C22.2179 5.76781 23.2759 4.35381 24.8499 3.88381L24.9559 3.85781C29.6319 3.05781 34.3699 3.05781 39.0438 3.85781L39.1499 3.88381C40.7139 4.35581 41.7719 5.77781 41.7719 7.41181C41.7719 10.4158 42.9459 13.2438 45.0699 15.3678L45.6919 15.9998L44.4379 17.2538H44.4439Z" fill="#1D2128"/>
<path opacity="0.12" d="M19.5562 16.0001C21.8322 13.7241 23.1122 10.6401 23.1122 7.41405C23.1122 6.17805 23.9202 5.08605 25.1042 4.73005C29.6642 3.94805 34.3302 3.94805 38.8902 4.73005C40.0822 5.09405 40.8902 6.17805 40.8902 7.41405C40.8902 10.6321 42.1702 13.7261 44.4462 16.0001H19.5562Z" fill="#1D2128"/>
<path d="M32 60.9062C29.644 60.9062 27.288 60.7022 24.96 60.3022L24.854 60.2763C23.28 59.8143 22.222 58.3923 22.222 56.7563C22.222 53.7523 21.048 50.9243 18.924 48.8003L18.292 48.1683L19.554 46.9062L20.186 47.5382C22.648 50.0002 24 53.2723 24 56.7563C24 57.5923 24.524 58.3123 25.316 58.5703C29.752 59.3263 34.25 59.3263 38.684 58.5703C39.476 58.3123 40 57.5923 40 56.7563C40 53.2723 41.352 50.0003 43.814 47.5483L44.446 46.9083L45.7 48.1623L45.068 48.7943C42.952 50.9283 41.78 53.7463 41.78 56.7583C41.78 58.4023 40.722 59.8163 39.148 60.2863L39.042 60.3123C36.704 60.7123 34.358 60.9083 32.002 60.9083L32 60.9062Z" fill="#1D2128"/>
<path opacity="0.12" d="M44.444 48.168C42.168 50.444 40.888 53.528 40.888 56.754C40.888 57.99 40.08 59.082 38.896 59.438C34.336 60.22 29.67 60.22 25.11 59.438C23.928 59.082 23.118 57.99 23.118 56.754C23.118 53.536 21.838 50.442 19.562 48.168H44.444Z" fill="#1D2128"/>
<path d="M41.778 45.2715H22.222C20.294 45.2715 18.728 43.7075 18.728 41.7775V22.2215C18.728 20.2935 20.292 18.7275 22.222 18.7275H41.778C43.706 18.7275 45.272 20.2915 45.272 22.2215V41.7775C45.272 43.7055 43.708 45.2715 41.778 45.2715ZM22.222 20.3815C21.208 20.3815 20.382 21.2075 20.382 22.2215V41.7775C20.382 42.7915 21.208 43.6175 22.222 43.6175H41.778C42.792 43.6175 43.618 42.7915 43.618 41.7775V22.2215C43.618 21.2075 42.792 20.3815 41.778 20.3815H22.222Z" fill="#1D2128"/>
<path d="M32.0082 33.2538L28.1422 29.4398C27.7962 29.0938 27.7862 28.5338 28.1342 28.1858C28.4822 27.8378 29.0402 27.8298 29.3882 28.1778L32.0022 30.7458L38.9182 23.8298C39.2642 23.4838 39.8242 23.4838 40.1722 23.8298C40.5202 24.1758 40.5182 24.7358 40.1722 25.0838L32.0122 33.2518L32.0082 33.2538Z" fill="#1D2128"/>
<path d="M31.9998 24.888C31.5118 24.888 31.1118 24.488 31.1118 24V22.222C31.1118 21.734 31.5118 21.334 31.9998 21.334C32.4878 21.334 32.8878 21.734 32.8878 22.222V24C32.8878 24.488 32.4878 24.888 31.9998 24.888Z" fill="#1D2128"/>
<path d="M31.9998 42.6663C31.5118 42.6663 31.1118 42.2663 31.1118 41.7783V40.0003C31.1118 39.5123 31.5118 39.1123 31.9998 39.1123C32.4878 39.1123 32.8878 39.5123 32.8878 40.0003V41.7783C32.8878 42.2663 32.4878 42.6663 31.9998 42.6663Z" fill="#1D2128"/>
<path d="M41.7778 32.8883H39.9998C39.5118 32.8883 39.1118 32.4883 39.1118 32.0003C39.1118 31.5123 39.5118 31.1123 39.9998 31.1123H41.7778C42.2658 31.1123 42.6658 31.5123 42.6658 32.0003C42.6658 32.4883 42.2658 32.8883 41.7778 32.8883Z" fill="#1D2128"/>
<path d="M24 32.8883H22.222C21.734 32.8883 21.334 32.4883 21.334 32.0003C21.334 31.5123 21.734 31.1123 22.222 31.1123H24C24.488 31.1123 24.888 31.5123 24.888 32.0003C24.888 32.4883 24.488 32.8883 24 32.8883Z" fill="#1D2128"/>
<path d="M25.7158 26.6044C25.4838 26.6044 25.2618 26.5164 25.0838 26.3464L23.8298 25.0924C23.4838 24.7464 23.4838 24.1864 23.8298 23.8384C24.1758 23.4904 24.7358 23.4924 25.0838 23.8384L26.3378 25.0924C26.6838 25.4384 26.6838 25.9984 26.3378 26.3464C26.1698 26.5144 25.9378 26.6044 25.7158 26.6044Z" fill="#1D2128"/>
<path d="M39.5459 40.4364C39.3139 40.4364 39.0919 40.3484 38.9139 40.1784L37.6599 38.9244C37.3139 38.5784 37.3139 38.0184 37.6599 37.6704C38.0059 37.3224 38.5659 37.3244 38.9139 37.6704L40.1679 38.9244C40.5139 39.2704 40.5139 39.8304 40.1679 40.1784C39.9999 40.3464 39.7679 40.4364 39.5459 40.4364Z" fill="#1D2128"/>
<path d="M24.454 40.4357C24.222 40.4357 24 40.3477 23.822 40.1777C23.476 39.8317 23.476 39.2717 23.822 38.9237L25.076 37.6697C25.422 37.3237 25.982 37.3237 26.33 37.6697C26.678 38.0157 26.676 38.5757 26.33 38.9237L25.076 40.1777C24.916 40.3457 24.684 40.4357 24.454 40.4357Z" fill="#1D2128"/>
</svg>
